<?xml version="1.0" encoding="UTF-8" standalone="no"?>
<!-- Created with Inkscape (http://www.inkscape.org/) -->

<svg
   width="35.019566mm"
   height="30.328382mm"
   viewBox="0 0 35.019566 30.328382"
   version="1.1"
   id="svg1"
   xmlns="http://www.w3.org/2000/svg"
   xmlns:svg="http://www.w3.org/2000/svg">
  <defs
     id="defs1" />
  <g
     id="layer1"
     transform="translate(-79.639582,-85.460416)">
    <g
       id="g2"
       transform="matrix(0.26458333,0,0,0.26458333,134.01094,31.810462)">
      <path
         id="path8-5"
         style="fill:#ffffff;fill-opacity:1"
         d="m -141.05273,205.77148 c -21.48189,37.20892 -42.96287,74.41836 -64.44532,111.62696 44.11914,0 88.23828,0 132.357425,0 -22.060587,-38.20859 -44.119105,-76.41837 -66.179685,-114.62696 -0.57748,1 -1.15495,2 -1.73242,3 z m 53.455074,103.52344 c -34.481774,0 -68.963544,0 -103.445314,0 17.24089,-30.12239 34.48177,-60.24479 51.72266,-90.36719 17.24088,30.1224 34.48177,60.2448 51.722654,90.36719 z" />
      <path
         style="fill:#ffffff;fill-opacity:1"
         id="path7"
         d="m 168.89009,494.67539 -68.092,0 34.046,-58.9694 z"
         transform="translate(-274.16258,-195.10539)" />
    </g>
  </g>
</svg>
